# xmcd
# 
# Track frame offsets:
#     183
#     28745
#     82690
#     151175
#     191170
#     248863
# 
# Disc length: 3926
# 
# Revision: 2
# Processed by: cddbd v1.5.2PL0 Copyright (c) Steve Scherf et al.
# Submitted via: BonkEnc v1.0.15
# 
DISCID=3e0f5406
DTITLE=Miles Davis - Black Devil
DYEAR=1991
DGENRE=Contemporary Jazz
TTITLE0=Perfect Way
TTITLE1=Blues
TTITLE2=Human Nature
TTITLE3=All Blues
TTITLE4=In A Silent Way
TTITLE5=Katia
EXTD=
EXTT0=
EXTT1=
EXTT2=
EXTT3=
EXTT4=
EXTT5=
PLAYORDER=
